<mxfile host="app.diagrams.net" modified="2024-03-26T03:36:54.347Z" agent="Mozilla/5.0 (Windows NT 10.0; Win64; x64) AppleWebKit/537.36 (KHTML, like Gecko) Chrome/123.0.0.0 Safari/537.36" version="24.1.0" etag="68kxU03ekMnnGmBgqL2a" type="github">
  <diagram name="페이지-1" id="nIPPIrCTKVHvdgDVjWNE">
    <mxGraphModel>
      <root>
        <mxCell id="0" />
        <mxCell id="1" parent="0" />
      </root>
    </mxGraphModel>
  </diagram>
</mxfile>
